HIERARCHY
ROOT Hips
{
	OFFSET 0.000000 0.000000 0.000000
	CHANNELS 6 Xposition Yposition Zposition Xrotation Yrotation Zrotation
	JOINT LeftUpLeg_virtual
	{
		OFFSET 0.000000 0.000000 0.000000
		CHANNELS 3 Xrotation Yrotation Zrotation
		JOINT LeftUpLeg
		{
			OFFSET 13.026900 -6.336304 -1.092800
			CHANNELS 3 Xrotation Yrotation Zrotation
			JOINT LeftLeg
			{
				OFFSET 0.524474 -46.096886 9.782700
				CHANNELS 3 Xrotation Yrotation Zrotation
				JOINT LeftFoot
				{
					OFFSET -0.524474 -53.427422 -12.948200
					CHANNELS 3 Xrotation Yrotation Zrotation
					JOINT LeftToeBase
					{
						OFFSET 0.192200 -14.009700 16.364100
						CHANNELS 3 Xrotation Yrotation Zrotation
						JOINT LeftToe_End
						{
							OFFSET -1.784700 -0.561700 9.474800
							CHANNELS 3 Xrotation Yrotation Zrotation
							End Site
							{
								OFFSET 0 0 0
							}
						}
					}
				}
			}
		}
	}
	JOINT RightUpLeg_virtual
	{
		OFFSET 0.000000 0.000000 0.000000
		CHANNELS 3 Xrotation Yrotation Zrotation
		JOINT RightUpLeg
		{
			OFFSET -12.883000 -6.336304 -1.092800
			CHANNELS 3 Xrotation Yrotation Zrotation
			JOINT RightLeg
			{
				OFFSET -0.524587 -46.096825 9.782800
				CHANNELS 3 Xrotation Yrotation Zrotation
				JOINT RightFoot
				{
					OFFSET 0.524587 -53.427383 -12.948300
					CHANNELS 3 Xrotation Yrotation Zrotation
					JOINT RightToeBase
					{
						OFFSET -0.192200 -14.009700 16.364100
						CHANNELS 3 Xrotation Yrotation Zrotation
						JOINT RightToe_End
						{
							OFFSET 1.784700 -0.561700 9.474800
							CHANNELS 3 Xrotation Yrotation Zrotation
							End Site
							{
								OFFSET 0 0 0
							}
						}
					}
				}
			}
		}
	}
	JOINT Spine_virtual
	{
		OFFSET 0.000000 0.000000 0.000000
		CHANNELS 3 Xrotation Yrotation Zrotation
		JOINT Spine
		{
			OFFSET 0.072000 7.257294 -0.789700
			CHANNELS 3 Xrotation Yrotation Zrotation
			JOINT Spine1
			{
				OFFSET 0.000000 12.508769 -0.658067
				CHANNELS 3 Xrotation Yrotation Zrotation
				JOINT Spine1_split
				{
					OFFSET 0.000000 12.508769 -0.658067
					CHANNELS 3 Xrotation Yrotation Zrotation
					JOINT Spine2
					{
						OFFSET 0.000000 12.508769 -0.658067
						CHANNELS 3 Xrotation Yrotation Zrotation
						JOINT Neck_virtual
						{
							OFFSET 0.000000 0.000000 0.000000
							CHANNELS 3 Xrotation Yrotation Zrotation
							JOINT Neck
							{
								OFFSET 0.000000 14.033295 7.520400
								CHANNELS 3 Xrotation Yrotation Zrotation
								JOINT Head
								{
									OFFSET 0.000000 8.198502 5.703100
									CHANNELS 3 Xrotation Yrotation Zrotation
									JOINT HeadTop_End
									{
										OFFSET 0.000000 17.760803 13.332701
										CHANNELS 3 Xrotation Yrotation Zrotation
										End Site
										{
											OFFSET 0 0 0
										}
									}
								}
							}
						}
						JOINT LeftShoulder_virtual
						{
							OFFSET 0.000000 0.000000 0.000000
							CHANNELS 3 Xrotation Yrotation Zrotation
							JOINT LeftShoulder
							{
								OFFSET 6.292450 5.785301 -0.669000
								CHANNELS 3 Xrotation Yrotation Zrotation
								JOINT LeftShoulder_split
								{
									OFFSET 6.292450 5.785301 -0.669000
									CHANNELS 3 Xrotation Yrotation Zrotation
									JOINT LeftArm
									{
										OFFSET 13.907140 -6.093903 1.965100
										CHANNELS 3 Xrotation Yrotation Zrotation
										JOINT LeftForeArm
										{
											OFFSET 34.140198 0.000000 0.000000
											CHANNELS 3 Xrotation Yrotation Zrotation
											JOINT LeftHand
											{
												OFFSET 40.960209 0.000000 0.000000
												CHANNELS 3 Xrotation Yrotation Zrotation
												End Site
												{
													OFFSET 0 0 0
												}
											}
										}
									}
								}
							}
						}
						JOINT RightShoulder_virtual
						{
							OFFSET 0.000000 0.000000 0.000000
							CHANNELS 3 Xrotation Yrotation Zrotation
							JOINT RightShoulder
							{
								OFFSET -6.292450 5.785301 -0.669000
								CHANNELS 3 Xrotation Yrotation Zrotation
								JOINT RightShoulder_split
								{
									OFFSET -6.292450 5.785301 -0.669000
									CHANNELS 3 Xrotation Yrotation Zrotation
									JOINT RightArm
									{
										OFFSET -13.907140 -6.093903 1.965100
										CHANNELS 3 Xrotation Yrotation Zrotation
										JOINT RightForeArm
										{
											OFFSET -34.140198 0.000000 0.000000
											CHANNELS 3 Xrotation Yrotation Zrotation
											JOINT RightHand
											{
												OFFSET -40.960209 0.000000 0.000000
												CHANNELS 3 Xrotation Yrotation Zrotation
												End Site
												{
													OFFSET 0 0 0
												}
											}
										}
									}
								}
							}
						}
					}
				}
			}
		}
	}
}
MOTION
Frames: 5
Frame Time: 0.03333333
2.390812 100.314392 9.562000 0.000000 0.000000 0.000000 13.218136 -5.252990 -3.721076 -75.866852 1.312379 13.612701 105.704370 10.528334 -3.910632 30.157642 -7.760230 15.247894 11.793315 -6.126078 -1.849514 0.000000 0.000000 0.000000 7.096244 -3.292077 -3.469565 4.740956 -4.525640 7.805798 26.447939 6.703670 -4.221126 13.428441 -4.014054 -14.344714 -19.718882 10.916490 14.950987 0.000000 0.000000 0.000000 10.484175 -3.368069 -0.454614 1.041051 1.526876 2.148702 9.694299 2.374981 -0.809903 0.407657 13.102618 -3.046487 0.000000 0.000000 0.000000 9.313193 1.696018 -1.226888 9.004804 -3.338438 -7.596747 -16.382603 1.955232 -9.309507 0.000000 0.000000 0.000000 8.639658 2.703097 -0.458258 0.021326 -12.865789 -7.714706 0.300150 -2.569946 -7.678914 24.059683 0.905706 -45.544760 89.684161 -82.337165 73.574572 0.000000 0.000000 0.000000 11.223209 3.069161 -0.690978 0.642642 3.818631 6.034570 8.133078 7.067802 3.764250 -3.957881 -7.268157 58.584978 -90.261496 76.534783 84.346662 0.000000 0.000000 0.000000 
2.139807 99.599907 23.538757 0.000000 0.000000 0.000000 10.434138 -9.968340 -1.759161 -79.217538 1.129998 14.138603 94.299750 11.739020 -3.556531 29.089175 -7.379686 15.697443 12.069961 -5.908628 -1.043859 0.000000 0.000000 0.000000 6.542192 -9.749141 -1.232579 5.115121 -4.792030 5.664417 29.290300 8.114827 -3.693606 19.197080 -3.180473 -11.321007 -22.257046 10.375150 16.231782 0.000000 0.000000 0.000000 9.533984 -4.646703 0.674128 1.007156 2.461626 1.074192 9.547623 2.302636 -1.244520 1.224433 13.145819 -2.859461 0.000000 0.000000 0.000000 8.845813 1.796935 -1.453891 9.076001 -3.643255 -7.956055 -15.613432 2.857492 -8.803433 0.000000 0.000000 0.000000 8.536105 2.922460 -0.734581 0.445910 -11.255583 -6.492236 -1.269180 -1.669769 -8.335520 30.972828 7.565427 -45.596485 51.716539 -79.383293 35.655896 0.000000 0.000000 0.000000 10.751741 3.172744 -1.222393 0.463953 3.726852 4.688893 6.382351 2.960192 0.220067 -6.995080 -10.009185 54.764197 -121.287699 75.366889 115.259169 0.000000 0.000000 0.000000 
3.001571 97.206215 43.437225 0.000000 0.000000 0.000000 7.549044 -16.078986 3.469677 -80.041109 -1.782190 11.491050 77.622648 13.020835 -1.152025 27.889812 -5.896501 12.873147 10.364393 -5.599084 0.290436 0.000000 0.000000 0.000000 4.670353 -17.039638 4.126770 5.350827 -2.370028 2.453489 33.859488 10.538786 -3.813263 29.742151 -1.193043 -4.919272 -24.208946 9.044729 18.664103 0.000000 0.000000 0.000000 6.612231 -8.824882 4.740026 1.918624 3.578362 -1.671717 9.726691 2.400298 -2.505966 0.877590 10.966370 -1.186835 0.000000 0.000000 0.000000 8.646947 2.119880 -2.612720 9.795477 -4.124010 -8.256694 -13.803912 2.299868 -7.980663 0.000000 0.000000 0.000000 8.957154 3.344228 -2.124708 0.771202 -8.794241 -4.468398 -3.134298 -1.940243 -6.783107 36.851845 15.655419 -48.286296 32.356177 -70.080364 15.463065 0.000000 0.000000 0.000000 10.649127 3.568240 -2.831725 0.521601 3.843592 2.146546 5.098054 -0.422611 -0.547311 -7.355134 -15.125239 48.256834 -143.526303 69.628779 138.103365 0.000000 0.000000 0.000000 
4.650669 92.184540 66.909042 0.000000 0.000000 0.000000 5.338750 -22.725800 10.973732 -79.445666 -6.720679 6.299302 60.255212 13.233087 2.899211 28.855739 -3.289205 7.687210 6.658190 -5.274338 1.882722 0.000000 0.000000 0.000000 3.505717 -24.504301 11.831706 5.249600 1.712166 -0.583354 39.337983 13.294039 -4.958457 38.455744 1.702445 0.755721 -22.397961 7.897041 21.001563 0.000000 0.000000 0.000000 2.215106 -15.471348 10.844587 3.568318 4.465015 -5.421956 10.196496 2.493101 -4.214591 0.187827 7.113958 0.737198 0.000000 0.000000 0.000000 8.719531 2.486423 -4.354166 10.978653 -4.367320 -9.052048 -11.418029 0.942855 -7.286141 0.000000 0.000000 0.000000 9.674870 3.703352 -4.141182 0.927874 -5.859262 -2.423489 -4.082172 -3.685678 -5.341634 40.921699 22.865865 -52.644578 27.436913 -59.051049 8.890978 0.000000 0.000000 0.000000 10.979611 3.917854 -5.084454 0.707969 4.231759 -0.117943 5.115169 -1.986265 1.126883 -3.558432 -20.613221 41.891323 -153.384301 63.357757 149.392370 0.000000 0.000000 0.000000 
6.860442 84.571541 92.241600 0.000000 0.000000 0.000000 3.927096 -29.304811 19.368777 -79.347674 -11.684376 0.069812 46.586914 12.041319 7.127204 32.560478 -0.430404 1.911326 2.193172 -4.921602 3.212656 0.000000 0.000000 0.000000 3.111356 -31.601011 20.033940 3.281510 5.182290 -1.939289 48.109411 14.670708 -7.022926 42.245943 3.223828 3.634497 -14.656287 7.975094 21.961956 0.000000 0.000000 0.000000 -1.539198 -23.337244 18.004819 5.536057 4.844974 -9.198261 10.962892 2.386731 -5.983670 -0.477043 3.952688 1.644690 0.000000 0.000000 0.000000 8.846295 2.600939 -6.200842 12.359482 -3.969329 -10.897183 -8.986180 -0.180849 -7.232438 0.000000 0.000000 0.000000 10.467183 3.767538 -6.242740 0.954299 -3.214186 -1.432221 -3.097453 -5.781569 -3.988621 42.969485 27.316283 -57.948227 27.685053 -49.043449 6.484579 0.000000 0.000000 0.000000 11.737259 3.962762 -7.307523 1.010127 5.127152 -0.883804 5.837085 -1.993432 3.235000 4.047051 -24.395918 38.458381 -157.436871 60.057785 155.695419 0.000000 0.000000 0.000000 
